<svg viewBox="0 0 512 512" xmlns="http://www.w3.org/2000/svg">
<path fill-rule="evenodd" clip-rule="evenodd" d="M131.169 242.525C131.169 242.525 130.648 230.643 118.599 225.18C113.013 222.648 103.181 218.461 103.181 218.461L105.251 210.733C105.251 210.733 115.876 211.879 121.963 212.623C135.048 214.222 141.522 203.888 141.522 203.888L131.169 242.525Z" fill="#FF6F5C"/>
<circle cx="88.6239" cy="211.223" r="18.8816" transform="rotate(-75 88.6239 211.223)" fill="#FF6F5C" stroke="#FF6F5C" stroke-width="10"/>
<path fill-rule="evenodd" clip-rule="evenodd" d="M242.367 380.752C242.367 380.752 230.485 381.273 225.022 393.322C222.49 398.908 218.303 408.74 218.303 408.74L210.576 406.67C210.576 406.67 211.721 396.045 212.465 389.958C214.064 376.873 203.73 370.399 203.73 370.399L242.367 380.752Z" fill="#FF6F5C"/>
<circle cx="211.065" cy="423.297" r="18.8816" transform="rotate(-165 211.065 423.297)" fill="#FF6F5C" stroke="#FF6F5C" stroke-width="10"/>
<path fill-rule="evenodd" clip-rule="evenodd" d="M269.396 131.327C269.396 131.327 281.278 130.806 286.741 118.757C289.273 113.171 293.46 103.339 293.46 103.339L301.188 105.409C301.188 105.409 300.042 116.034 299.298 122.121C297.699 135.206 308.033 141.68 308.033 141.68L269.396 131.327Z" fill="#434B54"/>
<circle cx="300.698" cy="88.7818" r="18.8816" transform="rotate(15 300.698 88.7818)" fill="#434B54" stroke="#434B54" stroke-width="10"/>
<path fill-rule="evenodd" clip-rule="evenodd" d="M357.128 330.1C357.128 330.1 351.639 340.65 359.342 351.406C362.913 356.391 369.335 364.934 369.335 364.934L363.678 370.591C363.678 370.591 355.05 364.286 350.15 360.598C339.618 352.671 328.844 358.384 328.844 358.384L357.128 330.1Z" fill="#FF6F5C"/>
<circle cx="378.323" cy="378.481" r="18.8816" transform="rotate(135 378.323 378.481)" fill="#FF6F5C" stroke="#FF6F5C" stroke-width="10"/>
<path fill-rule="evenodd" clip-rule="evenodd" d="M154.635 181.979C154.635 181.979 160.124 171.429 152.421 160.673C148.85 155.688 142.428 147.145 142.428 147.145L148.085 141.488C148.085 141.488 156.713 147.793 161.613 151.481C172.145 159.408 182.919 153.695 182.919 153.695L154.635 181.979Z" fill="#434B54"/>
<circle cx="133.44" cy="133.598" r="18.8816" transform="rotate(-45 133.44 133.598)" fill="#434B54" stroke="#434B54" stroke-width="10"/>
<path fill-rule="evenodd" clip-rule="evenodd" d="M181.821 357.286C181.821 357.286 171.271 351.797 160.515 359.5C155.53 363.071 146.987 369.493 146.987 369.493L141.33 363.836C141.33 363.836 147.635 355.208 151.323 350.308C159.25 339.776 153.537 329.002 153.537 329.002L181.821 357.286Z" fill="#434B54"/>
<circle cx="133.44" cy="378.481" r="18.8816" transform="rotate(-135 133.44 378.481)" fill="#434B54" stroke="#434B54" stroke-width="10"/>
<path fill-rule="evenodd" clip-rule="evenodd" d="M329.942 154.793C329.942 154.793 340.492 160.282 351.248 152.579C356.234 149.008 364.776 142.586 364.776 142.586L370.433 148.243C370.433 148.243 364.128 156.871 360.44 161.771C352.513 172.303 358.226 183.077 358.226 183.077L329.942 154.793Z" fill="#434B54"/>
<circle cx="378.323" cy="133.598" r="18.8816" transform="rotate(45 378.323 133.598)" fill="#434B54" stroke="#434B54" stroke-width="10"/>
<path fill-rule="evenodd" clip-rule="evenodd" d="M306.534 370.801C306.534 370.801 296.504 377.193 297.798 390.36C298.398 396.463 299.688 407.072 299.688 407.072L291.96 409.142C291.96 409.142 287.641 399.368 285.241 393.724C280.084 381.593 267.897 381.153 267.897 381.153L306.534 370.801Z" fill="#434B54"/>
<circle cx="300.698" cy="423.297" r="18.8816" transform="rotate(165 300.698 423.297)" fill="#434B54" stroke="#434B54" stroke-width="10"/>
<path fill-rule="evenodd" clip-rule="evenodd" d="M205.23 141.278C205.23 141.278 215.259 134.886 213.965 121.719C213.365 115.616 212.075 105.007 212.075 105.007L219.803 102.937C219.803 102.937 224.123 112.711 226.522 118.355C231.68 130.486 243.867 130.925 243.867 130.925L205.23 141.278Z" fill="#FF6F5C"/>
<circle cx="211.065" cy="88.7818" r="18.8816" transform="rotate(-15 211.065 88.7818)" fill="#FF6F5C" stroke="#FF6F5C" stroke-width="10"/>
<path fill-rule="evenodd" clip-rule="evenodd" d="M141.12 306.691C141.12 306.691 134.728 296.662 121.561 297.956C115.458 298.556 104.849 299.846 104.849 299.846L102.779 292.118C102.779 292.118 112.553 287.798 118.197 285.399C130.328 280.241 130.768 268.054 130.768 268.054L141.12 306.691Z" fill="#434B54"/>
<circle cx="88.6239" cy="300.856" r="18.8816" transform="rotate(-105 88.6239 300.856)" fill="#434B54" stroke="#434B54" stroke-width="10"/>
<path fill-rule="evenodd" clip-rule="evenodd" d="M370.643 205.387C370.643 205.387 377.035 215.417 390.202 214.123C396.305 213.523 406.914 212.233 406.914 212.233L408.984 219.961C408.984 219.961 399.21 224.281 393.566 226.68C381.435 231.838 380.996 244.025 380.996 244.025L370.643 205.387Z" fill="#FF6F5C"/>
<circle cx="423.139" cy="211.223" r="18.8816" transform="rotate(75 423.139 211.223)" fill="#FF6F5C" stroke="#FF6F5C" stroke-width="10"/>
<path fill-rule="evenodd" clip-rule="evenodd" d="M380.594 269.554C380.594 269.554 381.115 281.436 393.165 286.899C398.75 289.431 408.582 293.618 408.582 293.618L406.512 301.346C406.512 301.346 395.887 300.2 389.8 299.456C376.715 297.857 370.241 308.191 370.241 308.191L380.594 269.554Z" fill="#434B54"/>
<circle cx="423.139" cy="300.856" r="18.8816" transform="rotate(105 423.139 300.856)" fill="#434B54" stroke="#434B54" stroke-width="10"/>
<circle cx="256" cy="256" r="116" fill="#434B54" stroke="#434B54" stroke-width="20"/>
<mask id="path-39-inside-1" fill="white">
<path fill-rule="evenodd" clip-rule="evenodd" d="M281.162 283.274C292.373 265.825 303.547 248.433 303.547 228.047C303.547 202.064 282.483 181 256.5 181C230.517 181 209.453 202.064 209.453 228.047C209.453 248.464 220.588 265.764 231.781 283.154C240.72 297.042 249.696 310.986 253.068 326.622C253.57 331.939 259.43 331.939 259.932 326.622C263.278 311.109 272.231 297.174 281.162 283.274ZM257.247 251.197C269.62 251.197 279.65 241.167 279.65 228.794C279.65 216.421 269.62 206.391 257.247 206.391C244.874 206.391 234.843 216.421 234.843 228.794C234.843 241.167 244.874 251.197 257.247 251.197Z"/>
</mask>
<path fill-rule="evenodd" clip-rule="evenodd" d="M281.162 283.274C292.373 265.825 303.547 248.433 303.547 228.047C303.547 202.064 282.483 181 256.5 181C230.517 181 209.453 202.064 209.453 228.047C209.453 248.464 220.588 265.764 231.781 283.154C240.72 297.042 249.696 310.986 253.068 326.622C253.57 331.939 259.43 331.939 259.932 326.622C263.278 311.109 272.231 297.174 281.162 283.274ZM257.247 251.197C269.62 251.197 279.65 241.167 279.65 228.794C279.65 216.421 269.62 206.391 257.247 206.391C244.874 206.391 234.843 216.421 234.843 228.794C234.843 241.167 244.874 251.197 257.247 251.197Z" fill="white"/>
<path fill-rule="evenodd" clip-rule="evenodd" d="M281.162 283.274C292.373 265.825 303.547 248.433 303.547 228.047C303.547 202.064 282.483 181 256.5 181C230.517 181 209.453 202.064 209.453 228.047C209.453 248.464 220.588 265.764 231.781 283.154C240.72 297.042 249.696 310.986 253.068 326.622C253.57 331.939 259.43 331.939 259.932 326.622C263.278 311.109 272.231 297.174 281.162 283.274ZM257.247 251.197C269.62 251.197 279.65 241.167 279.65 228.794C279.65 216.421 269.62 206.391 257.247 206.391C244.874 206.391 234.843 216.421 234.843 228.794C234.843 241.167 244.874 251.197 257.247 251.197Z" fill="white"/>
<path d="M281.162 283.274L289.575 288.679L289.575 288.679L281.162 283.274ZM231.781 283.154L240.19 277.742L240.19 277.742L231.781 283.154ZM253.068 326.622L263.023 325.681L262.968 325.092L262.843 324.514L253.068 326.622ZM259.932 326.622L250.157 324.514L250.032 325.092L249.976 325.681L259.932 326.622ZM293.547 228.047C293.547 244.989 284.304 259.884 272.749 277.869L289.575 288.679C300.442 271.766 313.547 251.877 313.547 228.047H293.547ZM256.5 191C276.961 191 293.547 207.587 293.547 228.047H313.547C313.547 196.541 288.006 171 256.5 171V191ZM219.453 228.047C219.453 207.587 236.039 191 256.5 191V171C224.994 171 199.453 196.541 199.453 228.047H219.453ZM240.19 277.742C228.658 259.826 219.453 245.019 219.453 228.047H199.453C199.453 251.909 212.518 271.702 223.373 288.567L240.19 277.742ZM262.843 324.514C259.02 306.789 248.924 291.312 240.19 277.742L223.373 288.567C232.516 302.772 240.371 315.184 243.293 328.731L262.843 324.514ZM249.976 325.681C250.022 325.201 250.285 323.978 251.449 322.746C252.625 321.501 254.422 320.61 256.5 320.61C258.577 320.61 260.375 321.501 261.551 322.746C262.715 323.978 262.978 325.201 263.023 325.681L243.112 327.563C243.715 333.946 248.447 340.61 256.5 340.61C264.553 340.61 269.285 333.946 269.888 327.563L249.976 325.681ZM272.749 277.869C264.027 291.443 253.953 306.914 250.157 324.514L269.707 328.731C272.603 315.305 280.436 302.904 289.575 288.679L272.749 277.869ZM269.65 228.794C269.65 235.644 264.097 241.197 257.247 241.197V261.197C275.143 261.197 289.65 246.69 289.65 228.794H269.65ZM257.247 216.391C264.097 216.391 269.65 221.944 269.65 228.794H289.65C289.65 210.898 275.143 196.391 257.247 196.391V216.391ZM244.843 228.794C244.843 221.944 250.397 216.391 257.247 216.391V196.391C239.351 196.391 224.843 210.898 224.843 228.794H244.843ZM257.247 241.197C250.397 241.197 244.843 235.644 244.843 228.794H224.843C224.843 246.69 239.351 261.197 257.247 261.197V241.197Z" fill="white" mask="url(#path-39-inside-1)"/>
</svg>
